Coordinates
version=1
nRows=5
nColumns=40
inDegrees=yes

Units are S.I. units (second, meters, Newtons, ...)
If the header above contains a line with 'inDegrees', this indicates whether rotational values are in degrees (yes) or radians (no).

endheader
time	pelvis_tilt	pelvis_list	pelvis_rotation	pelvis_tx	pelvis_ty	pelvis_tz	hip_flexion_r	hip_adduction_r	hip_rotation_r	knee_angle_r	knee_angle_r_beta	ankle_angle_r	subtalar_angle_r	mtp_angle_r	hip_flexion_l	hip_adduction_l	hip_rotation_l	knee_angle_l	knee_angle_l_beta	ankle_angle_l	subtalar_angle_l	mtp_angle_l	lumbar_extension	lumbar_bending	lumbar_rotation	arm_flex_r	arm_add_r	arm_rot_r	elbow_flex_r	pro_sup_r	wrist_flex_r	wrist_dev_r	arm_flex_l	arm_add_l	arm_rot_l	elbow_flex_l	pro_sup_l	wrist_flex_l	wrist_dev_l
      5.20000000	    -32.20456983	      9.68626927	      3.52576585	     -0.38858230	      0.69628236	     -1.02053763	     28.61198877	     -9.19456494	      1.60307693	     88.11747911	      1.53794014	    -13.66741980	      0.00000000	      0.00000000	     81.79204245	      4.81481517	    -18.93548676	     80.27262420	      1.40102159	     22.06146056	      0.00000000	      0.00000000	     -3.34335873	    -10.76707282	     -2.15586109	     89.94823225	    -14.42423904	      5.49692368	     48.91971924	     77.28058671	      0.00000000	      0.00000000	     89.94618133	    -22.36368491	      5.22600006	     53.25450435	     81.49406418	      0.00000000	      0.00000000
      5.20500000	    -32.24961888	      9.73387436	      3.56471881	     -0.38840474	      0.69580397	     -1.02059246	     28.55664083	     -9.31852478	      1.54887237	     88.05670932	      1.53687951	    -13.62811128	      0.00000000	      0.00000000	     81.86511836	      4.83662428	    -19.00187105	     80.33501019	      1.40211043	     22.05456035	      0.00000000	      0.00000000	     -3.32220403	    -10.83520189	     -2.16501772	     89.94822485	    -14.43136109	      5.46035118	     48.92058888	     77.14510504	      0.00000000	      0.00000000	     89.94618997	    -22.34818949	      5.27091685	     53.24097275	     81.42227859	      0.00000000	      0.00000000
      5.21000000	    -32.27081428	      9.72454846	      3.61843119	     -0.38823326	      0.69533319	     -1.02058832	     28.47066736	     -9.36575716	      1.47007716	     87.98177746	      1.53557170	    -13.62655068	      0.00000000	      0.00000000	     81.92163811	      4.83365636	    -19.04253380	     80.44112623	      1.40396251	     22.14753384	      0.00000000	      0.00000000	     -3.32277106	    -10.84965062	     -2.19402184	     89.94816384	    -14.45507493	      6.15918178	     49.08804740	     70.10036661	      0.00000000	      0.00000000	     89.94615926	    -22.31614919	      6.02442552	     53.41049858	     73.32323867	      0.00000000	      0.00000000
      5.21500000	    -32.36641465	      9.66805999	      3.66661462	     -0.38819090	      0.69470130	     -1.02058281	     28.49873892	     -9.37443540	      1.37462495	     87.93863345	      1.53481869	    -13.68428245	      0.00000000	      0.00000000	     82.08581034	      4.81437118	    -19.01048024	     80.57060219	      1.40622229	     22.19667177	      0.00000000	      0.00000000	     -3.23511314	    -10.81642199	     -2.19224929	     89.94801530	    -14.48717740	      6.72558505	     49.32229820	     64.22060047	      0.00000000	      0.00000000	     89.94608354	    -22.26870821	      6.58784894	     53.61224654	     66.75774342	      0.00000000	      0.00000000
      5.22000000	    -32.41940175	      9.59741816	      3.71232886	     -0.38796515	      0.69425060	     -1.02052230	     28.44348798	     -9.34173102	      1.26779795	     87.86788245	      1.53358386	    -13.55169366	      0.00000000	      0.00000000	     82.18439499	      4.77731862	    -18.98400280	     80.69026889	      1.40831087	     22.12947741	      0.00000000	      0.00000000	     -3.19895369	    -10.76280739	     -2.22136917	     89.94818024	    -14.50480453	      5.55592578	     48.92359629	     76.25641474	      0.00000000	      0.00000000	     89.94606776	    -22.23086728	      5.27040999	     53.12356291	     81.59319589	      0.00000000	      0.00000000
